ply
format ascii 1.0
comment Created in Blender version 4.5.6 LTS
element vertex 171
property float x
property float y
property float z
property float s
property float t
element face 18
property list uchar uint vertex_indices
end_header
-0.5210427 -0.41 0.0012218952 0 0
-0.47 -0.35999998 0.0012218952 0.5 0
-0.4189573 -0.41 0.0012218952 1 0
-0.4189573 -0.38767284 0.0012218952 1 0.25
-0.45900002 -0.347 0.0012218952 1 0.5
-0.4189573 -0.31128445 0.0012218952 1 0.75
-0.4189573 -0.2889573 0.0012218952 1 1
-0.47 -0.32999998 0.0012218952 0.5 1
-0.5210427 -0.2889573 0.0012218952 0 1
-0.5210427 -0.31128445 0.0012218952 0 0.75
-0.47900003 -0.347 0.0012218952 0 0.49999997
-0.5210427 -0.38767284 0.0012218952 0 0.24999999
-0.33843178 -0.30400002 0.0012218952 0 0
-0.33839923 -0.41000003 0.0012218952 0.33333334 0
-0.32160074 -0.41000003 0.0012218952 0.6666667 0
-0.32156816 -0.30400002 0.0012218952 1 0
-0.27909023 -0.30400002 0.0012218952 1 0.5
-0.27909023 -0.28909028 0.0012218952 1 1
-0.38090974 -0.28909028 0.0012218952 0 1
-0.38090974 -0.30400002 0.0012218952 0 0.5
-0.24000001 -0.41 0.0012218952 0 0
-0.14640939 -0.41 0.0012218952 1 0
-0.14640939 -0.39669108 0.0012218952 1 0.11111111
-0.222 -0.39669108 0.0012218952 1 0.22222222
-0.222 -0.35612148 0.0012218952 1 0.33333334
-0.14640939 -0.35612148 0.0012218952 1 0.44444448
-0.14640939 -0.3426997 0.0012218952 1 0.5555556
-0.222 -0.3426997 0.0012218952 1 0.6666667
-0.222 -0.3026129 0.0012218952 1 0.7777778
-0.14640939 -0.3026129 0.0012218952 1 0.8888889
-0.14640939 -0.2890626 0.0012218952 1 1
-0.24000001 -0.2890626 0.0012218952 0 1
-0.10467982 -0.41 0.0018179414 0 0
-0.09077129 -0.41 0.0018179414 0.14285715 0
-0.089999974 -0.305 0.0018179414 0.2857143 0
-0.03999999 -0.305 0.0018179414 0.42857146 0
-0.026499987 -0.316 0.0018179414 0.5714286 0
-0.026499987 -0.33100003 0.0018179414 0.71428573 0
-0.03400004 -0.342 0.0018179414 0.78571427 0
-0.085999995 -0.342 0.0018179414 0.85714287 0
-0.007320136 -0.41 0.0018179414 1 0
-0.007320136 -0.3898867 0.0018179414 1 0.16666667
-0.03999999 -0.35999998 0.0018179414 1 0.33333334
-0.026000023 -0.35999998 0.0018179414 1 0.5
-0.007320136 -0.34 0.0018179414 1 0.6666666
-0.007320136 -0.3094335 0.0018179414 1 0.8333333
-0.030000001 -0.2893202 0.0018179414 1 1
-0.10467982 -0.2893202 0.0018179414 0 1
0.02000001 0.25000003 0.0012218952 0 0
0.099999994 0.15 0.0012218952 1 0
0.29 0.3711538 0.0012218952 1 1
0.120000035 0.3711538 0.0012218952 0 1
0.13000003 -0.15 0.0012218952 0 0
0.29 -0.15 0.0012218952 1 0
0.120000035 0.060000002 0.0012218952 1 1
0.02000001 -0.01999998 0.0012218952 0 1
-0.2999999 -0.14999992 1.1641532e-10 0 0
-0.13999996 -0.14999992 1.1641532e-10 0.5 0
0.08000001 0.120000035 1.1641532e-10 1 0
-0.12999997 0.3711538 1.1641532e-10 1 1
-0.29352435 0.3711538 1.1641532e-10 0 1
-0.07999992 0.120000035 1.1641532e-10 0 0.5
-0.22999996 0.19000003 0.0012218952 0 0
-0.26999992 0.15 0.0012218952 1 0
-0.27999997 0.120000035 0.0012218952 1 1
-0.26999992 0.08000001 0.0012218952 0.92857146 1
-0.25999993 0.07000002 0.0012218952 0.85714287 1
-0.22999996 0.050000012 0.0012218952 0.7857143 1
-0.18999997 0.049999982 0.0012218952 0.71428573 1
-0.15999997 0.07000002 0.0012218952 0.64285713 1
-0.13999996 0.120000035 0.0012218952 0.57142854 1
-0.14999998 0.16 0.0012218952 0.5 1
-0.17999998 0.17999998 0.0012218952 0 1
0.02000001 -0.089999974 0.0012218952 0 0
0.0010637939 -0.077483535 0.0012218952 1 0
-0.01642707 -0.07198095 0.0012218952 1 1
-0.03999999 -0.07999995 0.0012218952 0.92857146 1
-0.049999952 -0.089999974 0.0012218952 0.85714287 1
-0.056518227 -0.10165675 0.0012218952 0.7857143 1
-0.059999973 -0.12999998 0.0012218952 0.71428573 1
-0.049999982 -0.13999997 0.0012218952 0.64285713 1
-0.019999951 -0.13999997 0.0012218952 0.57142854 1
0.008041084 -0.14695558 0.0012218952 0.5 1
0.02000001 -0.119999975 0.0012218952 0 1
0.030000001 0.34 0.0012218952 0 0
0.02000001 0.35 0.0012218952 1 0
0.01000002 0.35999998 0.0012218952 1 1
-0.009999961 0.35 0.0012218952 0.92857146 1
-0.009999961 0.33 0.0012218952 0.85714287 1
-0.022185892 0.33506873 0.0012218952 0.7857143 1
-0.021947026 0.32097998 0.0012218952 0.71428573 1
-0.01472351 0.31053296 0.0012218952 0.64285713 1
2.9802322e-08 0.29999998 0.0012218952 0.57142854 1
0.02000001 0.29999998 0.0012218952 0.5 1
0.030000001 0.32000002 0.0012218952 0 1
-0.22999996 2.9802322e-08 0.0012218952 0 0
-0.23999994 0.01000002 0.0012218952 1 0
-0.25830197 0.018067986 0.0012218952 1 1
-0.26927596 0.01512596 0.0012218952 0.92857146 1
-0.27198446 0.012324005 0.0012218952 0.85714287 1
-0.26999992 2.9802322e-08 0.0012218952 0.7857143 1
-0.2771678 -0.0070557594 0.0012218952 0.71428573 1
-0.27151728 -0.015227884 0.0012218952 0.64285713 1
-0.26 -0.01999998 0.0012218952 0.57142854 1
-0.24667382 -0.017562568 0.0012218952 0.5 1
-0.23999994 -0.00999999 0.0012218952 0 1
0.15020165 0.15084818 1.1641532e-10 0 0
0.19756547 0.15262419 1.1641532e-10 0.33333334 0
0.22730073 0.11884391 1.1641532e-10 0.6666667 0
0.21953079 0.07208809 1.1641532e-10 1 0
0.29513374 0.20853189 1.1641532e-10 0 1
0.060000032 -0.41 0.0018179414 0 0
0.099999994 -0.41 0.0018179414 1 0
0.13000003 -0.38 0.0018179414 1 0.33333334
0.13000003 -0.32000002 0.0018179414 1 0.6666667
0.11723235 -0.32713187 0.0018179414 0.90100205 0.6479535
0.11723235 -0.37174654 0.0018179414 0.89835083 0.3609803
0.09431741 -0.3944878 0.0018179414 0.7633817 0.1376741
0.06532666 -0.3944878 0.0018179414 0.23718351 0.14735341
0.04310611 -0.37174654 0.0018179414 0.104346186 0.36044106
0.04310611 -0.32713187 0.0018179414 0.10240551 0.6461103
0.030000001 -0.32000002 0.0018179414 0 0.6666666
0.030000001 -0.38 0.0018179414 0 0.3333333
0.06428501 -0.30456415 0.0018179414 0.2052802 0.8731733
0.09587988 -0.30456415 0.0018179414 0.78562427 0.85720634
0.099999994 -0.29000002 0.0018179414 1 1
0.060000032 -0.29000002 0.0018179414 0 1
0.24208632 -0.29024872 0.0020563602 0 0
0.1699138 -0.29024872 0.0020563602 1 0
0.1699138 -0.30529696 0.0020563602 1 0.2
0.19781598 -0.30544132 0.0020563602 1 0.4
0.19781598 -0.39487958 0.0020563602 1 0.6
0.1699138 -0.39487958 0.0020563602 1 0.8
0.1699138 -0.41 0.0020563602 1 1
0.24208632 -0.41 0.0020563602 0 1
0.24208632 -0.39487958 0.0020563602 0 0.8
0.21418408 -0.39487958 0.0020563602 0 0.6
0.21418408 -0.30544132 0.0020563602 0 0.4
0.24208632 -0.30529696 0.0020563602 0 0.2
0.28 -0.41000003 0.0022947788 0 0
0.35000005 -0.41000003 0.0022947788 1 0
0.3823255 -0.37740695 0.0022947788 1 0.33333334
0.3823255 -0.32026756 0.0022947788 1 0.6666667
0.36403832 -0.3217279 0.0022947788 0.9036455 0.68977624
0.36403832 -0.37033525 0.0022947788 0.8891432 0.35205942
0.34615776 -0.38821578 0.0022947788 0.8167276 0.19032836
0.29859194 -0.3883894 0.0022947788 0.23861617 0.1773591
0.51600015 -0.29000002 0.0022947788 0 0
0.44000003 -0.29 0.0022947788 1 0
0.42000005 -0.31000003 0.0022947788 1 0.11111111
0.42000005 -0.33500004 0.0022947788 1 0.22222222
0.44000003 -0.35400003 0.0022947788 1 0.33333334
0.49000004 -0.354 0.0022947788 1 0.44444448
0.5005001 -0.36567688 0.0022947788 1 0.5555556
0.5005001 -0.3823232 0.0022947788 1 0.6666667
0.49000004 -0.39400002 0.0022947788 1 0.7777778
0.42000005 -0.39400002 0.0022947788 1 0.8888889
0.42000005 -0.41 0.0022947788 1 1
0.5000001 -0.41 0.0022947788 0 1
0.51600015 -0.388 0.0022947788 0 0.8888889
0.51600015 -0.35999998 0.0022947788 0 0.7777778
0.498 -0.33800003 0.0022947788 0 0.6666667
0.44500002 -0.33800003 0.0022947788 0 0.5555556
0.4350001 -0.32891753 0.0022947788 0 0.44444448
0.4350001 -0.31500003 0.0022947788 0 0.33333337
0.44600007 -0.30410632 0.0022947788 0 0.22222224
0.51600015 -0.30410632 0.0022947788 0 0.11111112
0.29963353 -0.30488884 0.0022947788 0.2563454 0.8586151
0.3452898 -0.30436808 0.0022947788 0.8345538 0.8538428
0.35000005 -0.2876745 0.0022947788 1 1
0.28 -0.2876745 0.0022947788 0 1
12 0 1 2 3 4 5 6 7 8 9 10 11
8 12 13 14 15 16 17 18 19
12 20 21 22 23 24 25 26 27 28 29 30 31
16 32 33 34 35 36 37 38 39 40 41 42 43 44 45 46 47
4 48 49 50 51
4 52 53 54 55
6 56 57 58 59 60 61
11 62 63 64 65 66 67 68 69 70 71 72
11 73 74 75 76 77 78 79 80 81 82 83
11 84 85 86 87 88 89 90 91 92 93 94
11 95 96 97 98 99 100 101 102 103 104 105
5 106 107 108 109 110
12 111 112 113 114 115 116 117 118 119 120 121 122
8 121 120 123 124 115 114 125 126
12 127 128 129 130 131 132 133 134 135 136 137 138
8 139 140 141 142 143 144 145 146
20 147 148 149 150 151 152 153 154 155 156 157 158 159 160 161 162 163 164 165 166
8 167 168 143 142 169 170 139 146
